<!DOCTYPE svg PUBLIC "-//W3C//DTD SVG 20010904//EN" "http://www.w3.org/TR/2001/REC-SVG-20010904/DTD/svg10.dtd">
<svg version="1.0" xmlns="http://www.w3.org/2000/svg" width="450px" height="303px" viewBox="0 0 4500 3030" preserveAspectRatio="xMidYMid meet">
<g id="layer101" fill="#023892" stroke="none">
 <path d="M0 1515 l0 -1515 2250 0 2250 0 0 1515 0 1515 -2250 0 -2250 0 0 -1515z"/>
 </g>
<g id="layer102" fill="#294367" stroke="none">
 <path d="M0 1515 l0 -1515 2250 0 2250 0 0 1515 0 1515 -2250 0 -2250 0 0 -1515z m4000 1256 c0 -21 -87 -158 -105 -164 -6 -3 -85 17 -175 43 -91 26 -223 64 -295 85 -71 20 -137 41 -145 46 -9 5 139 9 353 9 354 0 367 -1 367 -19z m-1180 -2116 c0 -6 -48 -337 -59 -409 -3 -22 -11 -41 -17 -43 -6 -2 -30 22 -54 54 -24 32 -60 76 -80 98 -69 74 -212 256 -206 262 3 3 83 14 178 23 195 20 238 22 238 15z"/>
 </g>
<g id="layer103" fill="#143cad" stroke="none">
 <path d="M0 1515 l0 -1515 2250 0 2250 0 0 1515 0 1515 -2250 0 -2250 0 0 -1515z m4000 1256 c0 -21 -87 -158 -105 -164 -6 -3 -85 17 -175 43 -91 26 -223 64 -295 85 -71 20 -137 41 -145 46 -9 5 139 9 353 9 354 0 367 -1 367 -19z m-1180 -2116 c0 -6 -48 -337 -59 -409 -3 -22 -11 -41 -17 -43 -6 -2 -30 22 -54 54 -24 32 -60 76 -80 98 -69 74 -212 256 -206 262 3 3 83 14 178 23 195 20 238 22 238 15z"/>
 </g>
<g id="layer104" fill="#054ea5" stroke="none">
 <path d="M0 1515 l0 -1515 2250 0 2250 0 0 1515 0 1515 -2250 0 -2250 0 0 -1515z m4195 1234 c25 -23 45 -45 45 -50 0 -10 -111 -89 -157 -113 -46 -23 -123 -10 -373 64 -113 33 -254 74 -315 91 -60 17 -114 35 -119 40 -6 5 175 9 432 9 l442 0 45 -41z m-203 -366 c39 -56 137 -216 221 -360 57 -99 59 -104 47 -135 -24 -60 -19 -60 -202 3 -94 32 -175 62 -179 66 -5 5 -4 38 1 73 4 36 14 119 20 185 15 163 18 182 36 200 9 8 17 15 19 15 2 0 19 -21 37 -47z m-1172 -1728 c0 -6 -48 -337 -59 -409 -3 -22 -11 -41 -17 -43 -6 -2 -30 22 -54 54 -24 32 -60 76 -80 98 -69 74 -212 256 -206 262 3 3 83 14 178 23 195 20 238 22 238 15z"/>
 </g>
<g id="layer105" fill="#0659c9" stroke="none">
 <path d="M0 1515 l0 -1515 2250 0 2250 0 0 1515 0 1515 -2250 0 -2250 0 0 -1515z m1181 1261 c19 -8 86 -45 150 -83 111 -65 126 -78 310 -268 107 -111 216 -227 242 -258 86 -102 100 -109 240 -117 67 -5 209 -11 316 -15 l194 -8 -59 -56 c-120 -113 -377 -336 -397 -345 -12 -4 -98 -8 -192 -8 -135 0 -175 -3 -194 -15 -22 -14 -27 -13 -63 7 -33 19 -48 21 -111 16 -40 -4 -100 -6 -134 -6 -49 1 -66 -3 -81 -18 -20 -20 -20 -19 -45 6 -24 23 -28 24 -71 13 -31 -7 -53 -8 -65 -2 -42 23 -115 23 -174 1 -38 -14 -67 -19 -87 -15 -17 4 -30 8 -30 11 0 2 29 55 65 117 72 126 78 154 41 207 -51 76 -166 273 -162 278 6 5 52 -20 183 -101 50 -32 94 -57 99 -57 4 0 32 -17 63 -37 54 -36 96 -61 176 -104 22 -12 69 -43 105 -69 104 -75 144 -88 157 -53 8 21 -17 41 -126 100 -47 26 -99 57 -114 70 -16 13 -32 23 -37 23 -4 0 -71 42 -147 93 -76 50 -198 128 -271 172 -247 149 -507 307 -572 350 -36 23 -111 72 -167 109 -57 36 -103 69 -103 71 0 3 231 5 514 5 419 0 520 -3 547 -14z m3017 -31 l47 -45 -35 -30 c-19 -16 -62 -45 -95 -64 -57 -34 -62 -36 -130 -30 -38 4 -77 10 -86 15 -9 4 -88 28 -175 53 -332 93 -420 119 -444 132 -21 11 43 13 423 14 l448 0 47 -45z m-4156 7 c11 -16 68 -52 319 -202 280 -167 469 -288 469 -300 0 -4 -6 -13 -14 -19 -22 -18 -36 -101 -36 -209 0 -53 -3 -168 -7 -256 l-6 -158 -41 6 c-49 8 -57 16 -221 226 -66 84 -149 190 -184 234 -69 88 -215 243 -274 291 l-37 30 0 187 c0 111 4 188 9 188 6 0 16 -8 23 -18z m3950 -369 c39 -56 137 -216 221 -360 l59 -102 -17 -45 c-10 -25 -18 -46 -19 -46 -15 1 -352 122 -358 128 -5 5 -5 49 2 108 20 176 24 263 10 278 -15 19 -3 41 36 67 16 10 30 19 31 19 1 0 17 -21 35 -47z m-1651 -1083 c24 -11 54 -20 66 -20 12 0 46 -11 75 -24 54 -24 88 -64 88 -104 0 -11 11 -33 23 -49 28 -34 92 -142 102 -172 5 -18 2 -21 -23 -21 -36 0 -63 -29 -115 -122 l-36 -64 -72 -2 c-76 -1 -93 -9 -87 -38 4 -21 45 -31 61 -15 7 7 15 7 25 -1 25 -21 115 -25 250 -12 127 13 135 13 170 -6 20 -11 42 -20 50 -20 7 0 53 -21 103 -46 88 -44 91 -46 85 -74 -3 -16 -16 -51 -28 -77 l-23 -48 -118 -7 c-65 -4 -125 -12 -132 -18 -18 -15 -32 -61 -40 -132 -4 -32 -10 -58 -15 -58 -5 0 -34 32 -65 70 -78 97 -92 105 -192 105 -71 0 -85 -3 -104 -21 -35 -35 -18 -58 79 -108 48 -24 123 -63 167 -86 101 -52 166 -70 263 -71 42 0 136 -11 207 -24 l130 -23 -365 0 c-201 1 -345 4 -320 7 51 8 100 30 66 31 -10 0 -24 7 -30 15 -6 9 -59 25 -128 40 -64 13 -147 33 -183 44 -37 12 -85 21 -106 21 -33 0 -41 4 -49 25 -6 16 -17 25 -31 25 -23 0 -79 51 -79 72 0 7 45 58 100 113 63 62 104 111 108 130 7 24 20 36 65 57 92 45 82 63 -101 169 -51 30 -115 68 -142 84 -27 17 -104 63 -172 104 -214 128 -232 139 -257 158 l-24 19 52 37 c59 43 68 58 53 93 -7 13 -10 24 -8 24 3 0 11 2 19 6 8 3 33 -13 61 -40 63 -62 95 -60 111 7 7 28 25 38 25 13 0 -19 57 -66 79 -66 25 0 41 20 41 52 0 39 27 47 131 41 66 -4 88 -2 104 11 26 20 34 20 86 -4z"/>
 </g>
<g id="layer106" fill="#3146bb" stroke="none">
 <path d="M0 1515 l0 -1515 2250 0 2250 0 0 1515 0 1515 -2250 0 -2250 0 0 -1515z m1181 1261 c19 -8 86 -45 150 -83 111 -65 126 -78 310 -268 107 -111 216 -227 242 -258 86 -102 100 -109 240 -117 67 -5 209 -11 316 -15 l194 -8 -59 -56 c-120 -113 -377 -336 -397 -345 -12 -4 -98 -8 -192 -8 -135 0 -175 -3 -194 -15 -22 -14 -27 -13 -63 7 -33 19 -48 21 -111 16 -40 -4 -100 -6 -134 -6 -49 1 -66 -3 -81 -18 -20 -20 -20 -19 -45 6 -24 23 -28 24 -71 13 -32 -8 -52 -8 -66 -1 -26 14 -143 13 -175 -2 -35 -16 -42 -50 -18 -90 18 -30 18 -36 5 -68 -7 -19 -12 -49 -10 -67 3 -21 0 -33 -8 -33 -6 0 -52 18 -100 40 -89 40 -97 49 -69 80 8 9 32 48 55 88 22 40 59 105 81 145 90 156 93 171 55 227 -51 76 -166 273 -162 278 6 5 52 -20 183 -101 50 -32 94 -57 99 -57 4 0 32 -17 63 -37 54 -36 96 -61 176 -104 22 -12 69 -43 105 -69 104 -75 144 -88 157 -53 8 21 -17 41 -126 100 -47 26 -99 57 -114 70 -16 13 -32 23 -37 23 -4 0 -71 42 -147 93 -76 50 -198 128 -271 172 -247 149 -507 307 -572 350 -36 23 -111 72 -167 109 -57 36 -103 69 -103 71 0 3 231 5 514 5 419 0 520 -3 547 -14z m3017 -31 l47 -45 -35 -30 c-19 -16 -62 -45 -95 -64 -57 -34 -62 -36 -130 -30 -38 4 -77 10 -86 15 -9 4 -88 28 -175 53 -332 93 -420 119 -444 132 -21 11 43 13 423 14 l448 0 47 -45z m-4156 7 c11 -16 68 -52 319 -202 258 -154 469 -288 469 -298 0 -3 -7 -14 -16 -24 -22 -24 -32 -146 -39 -462 -3 -137 -6 -251 -8 -253 -5 -4 -162 192 -366 457 -166 214 -368 430 -386 412 -3 -3 -5 83 -5 191 0 117 4 197 9 197 6 0 16 -8 23 -18z m3987 -426 c141 -227 175 -285 230 -386 35 -63 73 -129 86 -146 13 -16 39 -59 59 -95 20 -35 36 -59 36 -54 0 20 49 -71 50 -92 l0 -22 -77 28 c-108 39 -470 178 -517 198 l-38 17 7 105 c3 59 11 147 17 196 18 169 21 254 8 269 -15 19 -3 41 36 67 l29 19 21 -26 c12 -14 36 -49 53 -78z m-2390 -1020 c7 -9 28 -16 46 -16 26 0 44 -10 79 -45 63 -61 95 -59 111 8 7 28 25 38 25 13 0 -19 57 -66 79 -66 25 0 41 20 41 52 0 39 29 48 125 41 63 -5 84 -3 111 12 32 17 35 17 83 -4 27 -11 59 -21 70 -21 11 0 44 -11 73 -24 54 -24 88 -64 88 -104 0 -11 11 -33 23 -49 28 -34 92 -142 102 -172 5 -18 2 -21 -23 -21 -36 0 -63 -29 -115 -122 l-36 -64 -72 -2 c-76 -1 -93 -9 -87 -38 4 -21 45 -31 61 -15 7 7 15 7 25 -1 25 -21 115 -25 252 -11 116 11 139 11 165 -1 17 -8 80 -38 142 -67 62 -29 114 -58 117 -66 3 -7 14 -13 25 -13 19 0 31 -18 31 -49 0 -25 -38 -56 -88 -70 -32 -9 -47 -20 -58 -44 -16 -33 -129 -124 -205 -164 -60 -33 -70 -43 -67 -72 4 -37 40 -51 133 -51 44 -1 139 -12 210 -25 l130 -23 -514 -1 c-501 -1 -515 0 -572 20 -32 12 -57 25 -54 29 4 7 -26 20 -196 84 -65 25 -114 53 -198 116 -61 47 -110 89 -108 94 2 6 68 34 147 63 79 29 151 59 159 68 14 14 14 18 1 42 -16 28 -125 90 -245 140 -90 37 -95 44 -95 126 0 64 2 71 31 98 17 16 34 29 37 29 10 0 72 63 72 73 0 35 -135 133 -250 181 -41 17 -77 35 -79 39 -2 4 -1 20 2 36 5 24 15 31 57 45 28 9 56 13 63 9 6 -4 31 -10 55 -13 39 -6 44 -5 52 16 5 13 7 52 3 88 -3 35 -2 73 3 83 6 12 10 -10 14 -68 3 -51 11 -93 19 -103z m2827 -130 c-15 -41 -26 -61 -28 -50 -2 11 -12 -14 -22 -54 -10 -41 -25 -76 -32 -79 -14 -5 -244 46 -326 73 -27 9 -48 20 -48 25 0 4 13 15 28 23 16 8 34 22 41 30 7 8 63 43 124 78 62 34 150 88 197 119 l85 57 3 -76 c2 -61 -3 -92 -22 -146z"/>
 </g>
<g id="layer107" fill="#266aab" stroke="none">
 <path d="M0 1515 l0 -1515 2250 0 2250 0 0 1515 0 1515 -2250 0 -2250 0 0 -1515z m1181 1261 c19 -8 86 -45 150 -83 111 -65 126 -78 310 -268 107 -111 216 -227 242 -258 86 -102 100 -109 240 -117 67 -5 209 -11 316 -15 l194 -8 -59 -56 c-120 -113 -377 -336 -397 -345 -12 -4 -98 -8 -192 -8 -135 0 -175 -3 -194 -15 -22 -14 -27 -13 -63 7 -33 19 -48 21 -111 16 -40 -4 -100 -6 -134 -6 -49 1 -66 -3 -81 -18 -20 -20 -20 -19 -45 6 -24 23 -28 24 -71 13 -32 -8 -52 -8 -66 -1 -26 14 -143 13 -175 -2 -35 -16 -42 -50 -18 -90 18 -30 18 -36 5 -68 -7 -19 -12 -49 -10 -67 3 -21 0 -33 -8 -33 -6 0 -52 18 -100 40 -89 40 -97 49 -69 80 8 9 32 48 55 88 22 40 59 105 81 145 90 156 93 171 55 227 -51 76 -166 273 -162 278 6 5 52 -20 183 -101 50 -32 94 -57 99 -57 4 0 32 -17 63 -37 54 -36 96 -61 176 -104 22 -12 69 -43 105 -69 104 -75 144 -88 157 -53 8 21 -17 41 -126 100 -47 26 -99 57 -114 70 -16 13 -32 23 -37 23 -4 0 -71 42 -147 93 -76 50 -198 128 -271 172 -247 149 -507 307 -572 350 -36 23 -111 72 -167 109 -57 36 -103 69 -103 71 0 3 231 5 514 5 419 0 520 -3 547 -14z m3021 -22 c58 -49 63 -60 36 -77 -13 -8 -49 -31 -80 -50 -32 -20 -79 -47 -105 -61 -26 -13 -65 -38 -87 -55 -21 -17 -48 -31 -58 -31 -11 0 -32 -10 -48 -23 -15 -13 -72 -49 -126 -81 -54 -32 -128 -75 -164 -97 -36 -21 -72 -39 -81 -39 -18 0 -43 56 -32 73 3 5 101 56 217 112 116 57 217 109 224 118 17 20 6 43 -26 56 -15 6 -90 29 -167 50 -296 83 -401 114 -425 127 -21 11 44 13 427 14 l451 0 44 -36z m-4160 -2 c11 -16 68 -52 319 -202 258 -154 469 -288 469 -298 0 -3 -7 -14 -16 -24 -22 -24 -32 -146 -39 -462 -3 -137 -6 -251 -8 -253 -5 -4 -162 192 -366 457 -166 214 -368 430 -386 412 -3 -3 -5 83 -5 191 0 117 4 197 9 197 6 0 16 -8 23 -18z m4345 -154 c21 -18 49 -40 61 -48 20 -14 21 -18 11 -54 -6 -22 -14 -34 -18 -28 -3 6 -35 -78 -69 -186 -35 -108 -72 -221 -84 -250 -14 -36 -18 -63 -14 -87 6 -32 126 -239 161 -278 31 -34 55 -82 55 -109 l0 -27 -77 28 c-108 39 -470 178 -517 198 l-38 17 7 105 c3 59 11 147 17 196 19 174 21 254 8 270 -22 27 18 65 123 120 53 28 106 60 119 71 13 12 37 29 53 39 17 9 52 29 80 45 54 32 58 31 122 -22z m-2748 -1292 c7 -9 28 -16 46 -16 26 0 44 -10 79 -45 63 -61 95 -59 111 8 7 28 25 38 25 13 0 -19 57 -66 79 -66 25 0 41 20 41 52 0 39 29 48 125 41 63 -5 84 -3 111 12 32 17 35 17 83 -4 27 -11 59 -21 70 -21 11 0 44 -11 73 -24 54 -24 88 -64 88 -104 0 -11 11 -33 23 -49 28 -34 92 -142 102 -172 5 -18 2 -21 -23 -21 -36 0 -63 -29 -115 -122 l-36 -64 -72 -2 c-76 -1 -93 -9 -87 -38 4 -21 45 -31 61 -15 7 7 15 7 25 -1 25 -21 115 -25 252 -11 116 11 139 11 165 -1 17 -8 80 -38 142 -67 62 -29 114 -58 117 -66 3 -7 14 -13 25 -13 19 0 31 -18 31 -49 0 -25 -38 -56 -88 -70 -32 -9 -47 -20 -58 -44 -16 -33 -129 -124 -205 -164 -60 -33 -70 -43 -67 -72 4 -37 40 -51 133 -51 44 -1 139 -12 210 -25 l130 -23 -514 -1 c-501 -1 -515 0 -572 20 -32 12 -57 25 -54 29 4 7 -26 20 -196 84 -65 25 -114 53 -198 116 -61 47 -110 89 -108 94 2 6 68 34 147 63 79 29 151 59 159 68 14 14 14 18 1 42 -16 28 -125 90 -245 140 -90 37 -95 44 -95 126 0 64 2 71 31 98 17 16 34 29 37 29 10 0 72 63 72 73 0 35 -135 133 -250 181 -41 17 -77 35 -79 39 -2 4 -1 20 2 36 5 24 15 31 57 45 28 9 56 13 63 9 6 -4 31 -10 55 -13 39 -6 44 -5 52 16 5 13 7 52 3 88 -3 35 -2 73 3 83 6 12 10 -10 14 -68 3 -51 11 -93 19 -103z m2827 -130 c-15 -41 -26 -61 -28 -50 -2 11 -12 -14 -22 -54 -10 -41 -25 -76 -32 -79 -14 -5 -244 46 -326 73 -27 9 -48 20 -48 25 0 4 13 15 28 23 16 8 34 22 41 30 7 8 63 43 124 78 62 34 150 88 197 119 l85 57 3 -76 c2 -61 -3 -92 -22 -146z"/>
 </g>
<g id="layer108" fill="#0b6fc3" stroke="none">
 <path d="M0 1515 l0 -1515 2250 0 2250 0 0 1515 0 1515 -2250 0 -2250 0 0 -1515z m1234 1236 c181 -99 211 -123 408 -328 106 -109 215 -225 241 -256 86 -102 100 -109 240 -117 67 -5 209 -11 316 -15 l194 -8 -59 -56 c-32 -31 -130 -119 -217 -196 -134 -119 -167 -143 -220 -162 -34 -12 -72 -22 -84 -22 -22 -1 -63 -48 -63 -73 0 -14 62 -68 78 -68 5 0 15 7 22 15 17 20 30 9 30 -25 0 -34 18 -46 81 -56 24 -4 54 -17 66 -29 12 -12 42 -28 65 -35 24 -7 79 -30 123 -51 81 -38 115 -72 115 -117 0 -11 11 -33 23 -49 28 -34 92 -142 102 -172 5 -18 2 -21 -23 -21 -36 0 -63 -29 -115 -122 l-36 -64 -72 -2 c-76 -1 -93 -9 -87 -38 4 -21 45 -31 61 -15 7 7 15 7 25 -1 25 -21 115 -25 252 -11 116 11 139 11 165 -1 17 -8 80 -38 142 -67 62 -29 114 -58 117 -66 3 -7 14 -13 25 -13 19 0 31 -18 31 -49 0 -25 -38 -56 -88 -70 -32 -9 -47 -20 -58 -44 -16 -33 -129 -124 -205 -164 -60 -33 -70 -43 -67 -72 4 -37 41 -51 133 -51 44 0 139 -11 210 -24 l130 -24 -514 -1 c-500 -1 -515 0 -572 20 -32 12 -57 25 -54 29 4 7 -26 20 -196 84 -65 25 -114 53 -198 116 -61 47 -110 89 -108 94 2 6 68 34 147 63 79 29 151 59 159 68 14 14 14 18 1 42 -16 28 -125 90 -245 140 -90 37 -95 44 -95 126 0 64 2 71 31 98 17 16 34 29 37 29 10 0 72 63 72 73 0 36 -136 133 -255 183 -70 29 -80 36 -76 56 7 50 40 71 106 68 11 0 43 -1 70 -3 l50 -2 3 85 c1 47 5 92 8 100 10 27 24 -12 24 -68 0 -69 14 -96 45 -88 15 4 38 -1 60 -14 20 -11 38 -20 41 -20 2 0 4 15 2 33 -3 46 15 72 49 72 27 0 28 2 28 50 0 46 -2 50 -24 50 -32 0 -36 16 -16 55 21 41 11 54 -25 35 -32 -16 -43 -13 -99 28 -31 22 -82 22 -129 -2 -26 -13 -53 -18 -92 -16 -33 2 -58 -2 -62 -9 -4 -6 -8 -36 -8 -66 0 -76 -14 -94 -29 -36 -6 24 -11 63 -11 85 0 32 -4 41 -21 46 -15 5 -25 2 -31 -9 -11 -20 -56 -21 -78 -1 -23 21 -148 30 -179 13 -42 -23 -49 -44 -25 -86 18 -34 19 -41 6 -72 -7 -19 -12 -49 -10 -67 3 -21 0 -33 -8 -33 -6 0 -52 18 -100 40 -89 40 -97 49 -69 80 8 9 32 48 55 88 22 40 59 105 81 145 90 156 93 171 55 228 -13 19 -52 82 -86 140 -35 57 -72 114 -83 127 -27 29 -55 28 -67 -2 -11 -31 -34 -515 -27 -576 3 -25 3 -63 -1 -84 l-7 -39 -111 139 c-61 76 -175 222 -253 324 -166 214 -368 430 -386 412 -3 -3 -5 88 -5 201 l0 207 577 0 576 0 71 -39z m2968 3 c74 -62 79 -54 -77 -146 -135 -80 -151 -90 -183 -113 -18 -13 -38 -25 -45 -28 -17 -5 10 -37 32 -37 22 0 171 77 199 103 24 22 69 51 143 91 l46 25 30 -22 c28 -20 97 -72 115 -87 4 -3 3 -23 -3 -44 -6 -22 -14 -34 -18 -28 -3 6 -35 -78 -69 -186 -35 -108 -72 -221 -84 -250 -14 -36 -18 -63 -14 -87 6 -32 126 -239 161 -278 31 -34 55 -82 55 -109 l0 -27 -77 28 c-108 39 -470 178 -517 198 l-38 17 7 105 c3 59 11 147 17 196 5 50 12 129 15 176 5 84 5 86 -22 107 -15 12 -39 22 -52 22 -22 0 -24 -3 -18 -29 4 -19 1 -33 -8 -42 -40 -39 -250 -204 -260 -204 -6 0 -19 23 -30 50 -10 28 -28 72 -38 98 -11 26 -17 53 -13 59 4 6 103 57 221 114 117 57 216 111 220 120 11 30 -13 49 -93 72 -138 40 -175 51 -350 101 -94 26 -179 53 -190 59 -14 9 99 11 438 12 l456 0 44 -36z m264 -1578 c-15 -41 -26 -61 -28 -50 -2 11 -12 -14 -22 -54 -10 -41 -25 -76 -32 -79 -14 -5 -244 46 -326 73 -27 9 -48 20 -48 25 0 4 13 15 28 23 16 8 34 22 41 30 7 8 63 43 124 78 62 34 150 88 197 119 l85 57 3 -76 c2 -61 -3 -92 -22 -146z"/>
 </g>
<g id="layer109" fill="#3951c7" stroke="none">
 <path d="M0 1515 l0 -1515 2250 0 2250 0 0 1515 0 1515 -2250 0 -2250 0 0 -1515z m1263 1228 c51 -26 108 -58 127 -71 52 -35 113 -26 193 30 34 23 77 52 96 65 23 16 48 23 80 23 43 0 54 -6 151 -82 58 -45 166 -129 240 -186 215 -167 244 -193 228 -207 -7 -7 -69 -41 -138 -76 -175 -89 -220 -117 -220 -140 0 -37 36 -43 343 -55 164 -7 302 -15 305 -19 4 -4 -2 -12 -12 -19 -28 -16 -86 -79 -86 -93 0 -14 44 -28 59 -19 14 9 4 -150 -12 -183 -7 -14 -21 -27 -32 -29 -11 -2 -35 -15 -52 -28 -44 -33 -121 -56 -144 -43 -16 8 -74 11 -193 9 -22 -1 -61 -10 -87 -21 -26 -12 -52 -18 -58 -15 -5 4 -21 -6 -35 -21 -27 -29 -35 -63 -14 -63 7 0 24 -12 40 -27 26 -25 29 -26 47 -9 22 20 35 8 35 -33 1 -18 9 -27 36 -37 19 -7 47 -13 61 -13 15 -1 32 -8 40 -17 17 -20 83 -54 107 -54 10 0 22 -4 28 -8 5 -5 39 -21 75 -36 l67 -27 104 -197 c58 -108 123 -233 146 -277 23 -47 50 -85 64 -92 12 -7 66 -31 118 -55 52 -24 139 -64 192 -88 54 -25 98 -50 98 -56 0 -7 -11 -19 -25 -28 -50 -33 -28 -60 47 -58 38 1 50 -3 54 -16 3 -9 11 -30 19 -47 8 -16 15 -39 17 -50 2 -11 14 -22 28 -25 15 -4 33 -21 46 -43 12 -21 30 -44 42 -52 11 -8 26 -37 33 -65 9 -35 18 -50 30 -50 9 0 22 -7 29 -15 11 -13 -66 -15 -681 -15 -689 0 -694 0 -757 22 -34 12 -58 25 -52 28 13 8 -175 78 -232 86 -26 4 -51 15 -63 29 -11 12 -63 54 -115 92 -144 107 -131 65 -128 394 l3 284 52 35 c53 34 68 65 38 76 -8 3 -30 -4 -49 -15 -38 -24 -40 -22 -50 30 -4 21 -13 42 -21 49 -23 19 -8 26 -446 -198 -163 -84 -300 -152 -304 -152 -8 0 -3 70 26 393 10 120 16 230 12 245 -6 28 -104 162 -142 197 -18 16 -41 20 -120 23 -128 5 -125 9 -111 -149 6 -68 15 -144 19 -169 5 -25 5 -52 1 -60 -12 -23 -74 -54 -93 -47 -8 3 -42 47 -76 97 -43 65 -61 101 -61 124 0 41 -39 94 -182 247 l-38 41 0 539 0 539 581 0 580 0 92 -47z m2939 11 c58 -49 63 -60 36 -77 -13 -8 -49 -31 -80 -50 -32 -20 -79 -47 -105 -61 -101 -51 -179 -136 -125 -136 23 0 171 76 200 103 24 22 69 51 143 91 l46 25 30 -22 c28 -20 97 -72 115 -87 4 -3 3 -23 -3 -44 -6 -22 -14 -34 -18 -28 -3 6 -35 -78 -69 -186 -35 -108 -72 -221 -84 -250 -14 -36 -18 -63 -14 -87 6 -32 126 -239 161 -278 36 -40 55 -83 54 -122 -1 -22 -3 -33 -6 -24 -2 8 -31 24 -66 36 -134 45 -543 207 -560 221 -13 12 -16 24 -11 44 3 17 1 35 -6 43 -14 17 -56 20 -65 5 -9 -14 -58 -13 -73 2 -7 7 -12 20 -12 29 0 23 -11 29 -56 33 -53 4 -78 52 -26 51 35 0 37 29 2 33 -13 2 -35 13 -49 23 -29 23 -62 24 -102 3 -24 -12 -34 -13 -45 -3 -23 19 -16 37 26 64 47 29 58 49 40 70 -19 23 -40 18 -105 -25 -65 -43 -86 -48 -105 -25 -7 8 -18 15 -24 15 -6 0 -29 12 -50 26 -28 19 -36 31 -33 45 4 13 -3 25 -19 35 -18 12 -24 25 -24 50 0 43 17 44 56 3 16 -17 44 -38 62 -45 29 -13 37 -12 85 7 58 25 97 55 97 76 0 25 -154 409 -171 428 -5 5 -9 13 -9 17 0 4 207 8 459 8 l459 0 44 -36z m264 -1578 c-14 -41 -26 -61 -28 -50 -2 11 -12 -15 -23 -56 -15 -54 -25 -76 -38 -78 -20 -4 -354 74 -377 88 -25 16 -22 18 215 153 44 25 91 53 105 62 14 8 57 35 95 60 l70 44 3 -77 c2 -61 -3 -92 -22 -146z"/>
 <path d="M1060 1612 c-41 -20 -50 -57 -25 -96 13 -19 14 -29 6 -45 -14 -25 -14 -96 -1 -121 17 -32 51 -45 130 -50 l75 -5 3 -35 c4 -44 25 -61 66 -53 41 8 56 21 56 48 0 31 78 59 138 49 31 -5 48 -2 67 10 24 16 25 20 25 121 0 85 -3 105 -14 105 -8 0 -18 -4 -21 -10 -11 -17 -19 -11 -42 29 -20 36 -25 38 -65 38 -24 -1 -46 -6 -50 -12 -4 -5 -8 -38 -8 -72 0 -54 -11 -85 -26 -70 -2 2 -7 34 -11 70 -7 83 -14 95 -45 79 -24 -13 -38 -10 -123 22 -53 20 -93 20 -135 -2z"/>
 </g>
<g id="layer110" fill="#268eb2" stroke="none">
 <path d="M0 1515 l0 -1515 2250 0 2250 0 0 1515 0 1515 -2250 0 -2250 0 0 -1515z m1263 1228 c51 -26 108 -58 127 -71 52 -35 113 -26 193 30 34 23 77 52 96 65 23 16 48 23 80 23 43 0 54 -6 151 -82 58 -45 166 -129 240 -186 215 -167 244 -193 228 -207 -7 -7 -69 -41 -138 -76 -175 -89 -220 -117 -220 -140 0 -37 36 -43 343 -55 164 -7 302 -15 305 -19 4 -4 -2 -12 -12 -19 -28 -16 -86 -79 -86 -93 0 -14 44 -28 59 -19 14 9 4 -150 -12 -183 -7 -14 -21 -27 -32 -29 -11 -2 -35 -15 -52 -28 -44 -33 -121 -56 -144 -43 -16 8 -74 11 -193 9 -22 -1 -61 -10 -87 -21 -26 -12 -52 -18 -58 -15 -5 4 -21 -6 -35 -21 -27 -29 -35 -63 -14 -63 7 0 24 -12 40 -27 26 -25 29 -26 47 -9 22 20 35 8 35 -33 1 -18 9 -27 36 -37 19 -7 47 -13 61 -13 15 -1 32 -8 40 -17 17 -20 83 -54 107 -54 10 0 22 -4 28 -8 5 -5 39 -21 75 -36 l67 -27 104 -197 c58 -108 123 -233 146 -277 23 -47 50 -85 64 -92 12 -7 66 -31 118 -55 52 -24 139 -64 192 -88 54 -25 98 -50 98 -56 0 -7 -11 -19 -25 -28 -50 -33 -28 -60 47 -58 38 1 50 -3 54 -16 3 -9 11 -30 19 -47 8 -16 15 -39 17 -50 2 -11 14 -22 28 -25 15 -4 33 -21 46 -43 12 -21 30 -44 42 -52 11 -8 26 -37 33 -65 9 -35 18 -50 30 -50 9 0 22 -7 29 -15 11 -13 -66 -15 -681 -15 -689 0 -694 0 -757 22 -34 12 -58 25 -52 28 13 8 -175 78 -232 86 -26 4 -51 15 -63 29 -11 12 -63 54 -115 92 -144 107 -131 65 -128 394 l3 284 52 35 c53 34 68 65 38 76 -8 3 -30 -4 -49 -15 -38 -24 -40 -22 -50 30 -4 21 -13 42 -21 49 -23 19 -8 26 -446 -198 -163 -84 -300 -152 -304 -152 -8 0 -3 70 26 393 10 120 16 230 12 245 -6 28 -104 162 -142 197 -18 16 -41 20 -120 23 -128 5 -125 9 -111 -149 6 -68 15 -144 19 -169 5 -25 5 -52 1 -60 -12 -23 -74 -54 -93 -47 -8 3 -42 47 -76 97 -43 65 -61 101 -61 124 0 41 -39 94 -182 247 l-38 41 0 539 0 539 581 0 580 0 92 -47z m3226 -595 c-1 -354 -3 -636 -6 -627 -2 9 -33 25 -71 38 -37 12 -179 66 -317 120 l-250 97 2 39 c2 21 -2 44 -8 52 -13 15 -55 17 -64 3 -9 -14 -58 -13 -73 2 -7 7 -12 20 -12 29 0 23 -11 29 -56 33 -53 4 -78 52 -26 51 35 0 37 29 2 33 -13 2 -35 13 -49 23 -29 23 -62 24 -102 3 -24 -12 -34 -13 -45 -3 -23 19 -16 37 26 64 47 29 58 49 40 70 -19 23 -40 18 -105 -25 -65 -43 -86 -48 -105 -25 -7 8 -18 15 -24 15 -6 0 -29 12 -50 26 -28 19 -36 31 -33 45 4 13 -3 25 -19 35 -18 12 -24 25 -24 50 0 43 17 44 56 3 16 -17 44 -38 62 -45 29 -13 37 -12 85 7 58 25 97 55 97 76 0 25 -154 409 -171 428 -5 5 -9 13 -9 17 0 4 281 8 625 8 l625 0 -1 -642z m1 -1075 c-1 -353 2 -337 -40 -207 -6 17 -10 42 -10 57 0 15 -9 32 -22 41 -11 8 -107 36 -212 61 -105 25 -198 50 -206 55 -25 16 -22 18 215 153 84 48 88 50 200 122 39 24 71 45 73 45 1 0 2 -147 2 -327z"/>
 <path d="M1060 1612 c-41 -20 -50 -57 -25 -96 13 -19 14 -29 6 -45 -14 -25 -14 -96 -1 -121 17 -32 51 -45 130 -50 l75 -5 3 -35 c4 -44 25 -61 66 -53 41 8 56 21 56 48 0 31 78 59 138 49 31 -5 48 -2 67 10 24 16 25 20 25 121 0 85 -3 105 -14 105 -8 0 -18 -4 -21 -10 -11 -17 -19 -11 -42 29 -20 36 -25 38 -65 38 -24 -1 -46 -6 -50 -12 -4 -5 -8 -38 -8 -72 0 -54 -11 -85 -26 -70 -2 2 -7 34 -11 70 -7 83 -14 95 -45 79 -24 -13 -38 -10 -123 22 -53 20 -93 20 -135 -2z"/>
 </g>
<g id="layer111" fill="#0b8bd5" stroke="none">
 <path d="M0 1515 l0 -1515 2250 0 2250 0 0 1515 0 1515 -2250 0 -2250 0 0 -1515z m1263 1228 c51 -26 108 -58 127 -71 52 -35 113 -26 193 30 34 23 77 52 96 65 23 16 48 23 80 23 43 0 54 -6 151 -82 58 -45 166 -129 240 -186 215 -167 244 -193 228 -207 -7 -7 -69 -41 -138 -76 -175 -89 -220 -117 -220 -140 0 -37 36 -43 343 -55 164 -7 302 -15 305 -19 4 -4 -2 -12 -12 -19 -28 -16 -86 -79 -86 -93 0 -14 44 -28 59 -19 14 9 4 -150 -12 -183 -7 -14 -21 -27 -32 -29 -11 -2 -36 -16 -55 -31 -40 -32 -116 -54 -140 -41 -39 21 -264 4 -294 -22 -6 -4 -23 -8 -39 -8 -18 0 -36 -9 -48 -22 -22 -27 -25 -58 -4 -58 8 0 23 -10 34 -21 22 -24 51 -20 51 7 0 16 2 16 20 -1 11 -10 20 -28 20 -41 0 -49 92 -76 110 -31 8 20 9 20 9 -9 1 -17 9 -38 19 -47 25 -23 91 -49 103 -41 6 3 18 -1 27 -9 9 -9 45 -27 78 -42 l62 -27 105 -196 c57 -108 122 -233 145 -277 23 -47 50 -85 64 -92 12 -7 66 -31 118 -55 52 -24 139 -64 192 -88 54 -25 98 -50 98 -56 0 -7 -11 -19 -25 -28 -50 -33 -28 -60 47 -58 38 1 50 -3 54 -16 3 -9 11 -30 19 -47 8 -16 15 -39 17 -50 2 -11 14 -22 28 -25 15 -4 33 -21 46 -43 12 -21 30 -44 42 -52 11 -8 26 -37 33 -65 9 -35 18 -50 30 -50 9 0 22 -7 29 -15 11 -13 -66 -15 -681 -15 -689 0 -694 0 -757 22 -34 12 -58 25 -52 28 13 8 -175 78 -232 86 -26 4 -51 15 -63 29 -11 12 -63 54 -115 92 -144 107 -131 65 -128 394 l3 284 52 35 c53 34 68 65 38 76 -8 3 -30 -4 -49 -15 -38 -24 -40 -22 -50 30 -4 21 -13 42 -21 49 -23 19 -8 26 -446 -198 -163 -84 -300 -152 -304 -152 -8 0 -3 70 26 393 10 120 16 230 12 245 -6 28 -104 162 -142 197 -18 16 -41 20 -120 23 -128 5 -125 9 -111 -149 6 -68 15 -144 19 -169 5 -25 5 -52 1 -60 -12 -23 -74 -54 -93 -47 -8 3 -42 47 -76 97 -43 65 -61 101 -61 124 0 41 -39 94 -182 247 l-38 41 0 539 0 539 581 0 580 0 92 -47z m3226 -595 c-1 -354 -3 -636 -6 -627 -2 9 -33 25 -71 38 -37 12 -179 66 -317 120 l-250 97 2 39 c2 21 -2 44 -8 52 -13 15 -55 17 -64 3 -9 -14 -58 -13 -73 2 -7 7 -12 20 -12 29 0 23 -11 29 -56 33 -53 4 -78 52 -26 51 35 0 37 29 2 33 -13 2 -35 13 -49 23 -29 23 -62 24 -102 3 -24 -12 -34 -13 -45 -3 -23 19 -16 37 26 64 47 29 58 49 40 70 -19 23 -40 18 -105 -25 -65 -43 -86 -48 -105 -25 -7 8 -18 15 -24 15 -6 0 -29 12 -50 26 -28 19 -36 31 -33 45 4 13 -3 25 -19 35 -18 12 -24 25 -24 50 0 43 17 44 56 3 16 -17 44 -38 62 -45 29 -13 37 -12 85 7 58 25 97 55 97 76 0 25 -154 409 -171 428 -5 5 -9 13 -9 17 0 4 281 8 625 8 l625 0 -1 -642z m1 -1075 c-1 -353 2 -337 -40 -207 -6 17 -10 42 -10 57 0 15 -9 32 -22 41 -11 8 -107 36 -212 61 -105 25 -198 50 -206 55 -25 16 -22 18 215 153 84 48 88 50 200 122 39 24 71 45 73 45 1 0 2 -147 2 -327z"/>
 <path d="M1060 1612 c-41 -20 -50 -57 -25 -96 13 -19 14 -29 6 -45 -14 -25 -14 -96 -1 -121 17 -32 51 -45 130 -50 l75 -5 3 -35 c4 -44 25 -61 66 -53 41 8 56 21 56 48 0 31 78 59 138 49 31 -5 48 -2 67 10 24 16 25 20 25 121 0 85 -3 105 -14 105 -8 0 -18 -4 -21 -10 -11 -17 -19 -11 -42 29 -20 36 -25 38 -65 38 -24 -1 -46 -6 -50 -12 -4 -5 -8 -38 -8 -72 0 -54 -11 -85 -26 -70 -2 2 -7 34 -11 70 -7 83 -14 95 -45 79 -24 -13 -38 -10 -123 22 -53 20 -93 20 -135 -2z"/>
 </g>
<g id="layer112" fill="#267bd4" stroke="none">
 <path d="M0 1515 l0 -1515 2250 0 2250 0 0 1515 0 1515 -2250 0 -2250 0 0 -1515z m1263 1228 c51 -26 108 -58 127 -71 52 -35 113 -26 193 30 34 23 77 52 96 65 23 16 48 23 80 23 43 0 54 -6 156 -86 61 -47 194 -151 298 -231 103 -81 186 -151 184 -157 -4 -13 -71 -53 -199 -118 -108 -55 -116 -67 -69 -112 24 -23 36 -27 72 -24 39 3 44 6 44 27 0 19 -7 27 -32 33 -44 12 -42 28 5 29 114 4 106 2 112 34 5 29 6 30 73 33 61 3 67 1 67 -17 0 -27 26 -51 56 -51 21 0 25 -4 22 -22 -2 -18 -10 -24 -38 -26 -57 -4 -80 -12 -80 -26 0 -27 73 -35 140 -15 66 20 133 -33 78 -62 -27 -14 -77 -69 -78 -85 0 -18 29 -25 69 -18 49 9 61 21 61 61 0 51 24 53 72 7 22 -22 53 -56 70 -77 28 -35 29 -41 18 -63 -18 -32 -1 -49 48 -49 30 0 37 -4 37 -20 0 -15 -33 -38 -135 -96 -133 -76 -135 -77 -163 -61 -23 14 -26 21 -21 49 6 32 5 33 -28 33 -22 0 -45 -10 -68 -28 -40 -32 -115 -55 -140 -42 -39 21 -264 4 -294 -22 -6 -4 -23 -8 -39 -8 -18 0 -36 -9 -48 -22 -22 -27 -25 -58 -4 -58 8 0 23 -10 34 -21 22 -24 51 -20 51 7 0 16 2 16 20 -1 11 -10 20 -28 20 -41 0 -49 92 -76 110 -31 8 20 9 20 9 -9 1 -17 9 -38 19 -47 25 -23 88 -48 105 -41 8 3 19 -2 26 -9 6 -8 39 -25 72 -37 36 -14 67 -33 78 -49 21 -30 137 -250 212 -402 56 -114 74 -139 99 -139 9 0 41 30 72 67 31 38 72 83 91 101 31 30 36 32 63 22 16 -6 31 -15 34 -19 10 -15 120 -81 145 -87 l26 -7 -6 -136 -6 -136 -36 -31 c-56 -49 -38 -71 55 -65 24 2 33 -2 38 -16 3 -10 11 -31 19 -48 8 -16 15 -39 17 -50 2 -11 14 -22 28 -25 15 -4 33 -21 46 -43 12 -21 30 -44 42 -52 11 -8 26 -37 33 -65 10 -38 17 -50 32 -50 10 0 25 -7 33 -15 14 -13 -64 -15 -698 -15 -397 0 -718 4 -723 9 -6 5 -27 14 -48 21 -20 6 -35 15 -32 19 7 13 -153 72 -195 73 -20 0 -66 -3 -101 -6 -61 -6 -63 -6 -41 10 12 9 22 25 22 35 0 17 -57 69 -76 69 -5 0 -48 35 -94 78 -47 44 -101 84 -120 90 -19 7 -55 26 -80 42 -25 16 -50 30 -57 30 -7 0 -45 16 -86 35 -41 19 -77 35 -81 35 -4 0 -28 12 -53 27 -44 25 -45 27 -26 42 11 9 24 28 31 44 8 19 19 27 36 27 13 0 37 7 52 15 16 8 36 15 45 15 9 0 22 14 29 30 7 18 22 33 37 36 29 8 111 63 173 117 25 21 71 55 102 74 38 23 58 43 58 55 0 34 -27 30 -107 -15 -52 -30 -96 -47 -131 -52 -43 -6 -55 -11 -62 -30 -6 -15 -30 -33 -68 -50 -39 -17 -64 -36 -71 -52 -10 -21 -17 -24 -40 -20 -35 7 -56 -7 -79 -53 -16 -33 -20 -35 -66 -35 -42 -1 -52 -5 -75 -33 -20 -25 -34 -32 -61 -32 -41 0 -95 32 -95 57 0 11 -8 18 -20 18 -11 0 -20 7 -20 15 1 32 18 244 35 434 19 208 17 236 -20 256 -30 16 -249 25 -283 11 -34 -13 -47 -45 -35 -91 4 -19 13 -73 19 -120 5 -47 16 -123 23 -170 7 -47 11 -87 9 -89 -2 -3 -11 6 -21 19 -9 14 -33 47 -52 74 -19 27 -47 58 -62 69 l-27 20 -41 -26 c-22 -15 -58 -39 -80 -53 -39 -26 -59 -62 -46 -83 3 -5 65 -37 136 -72 72 -34 128 -64 126 -66 -4 -4 -107 33 -268 95 -79 30 -82 35 -102 189 l-13 98 -5 -60 -4 -60 -3 75 c-2 51 -5 67 -10 50 -6 -20 -9 -14 -15 32 -4 32 -4 63 1 70 5 8 10 -3 14 -32 3 -25 7 41 7 147 2 184 1 192 -18 198 -20 6 -20 15 -20 566 l0 559 581 0 580 0 92 -47z m3226 -595 c-1 -354 -3 -636 -6 -627 -2 8 -31 24 -66 36 -133 45 -563 215 -576 228 -12 12 -12 19 -2 41 9 20 9 30 0 40 -14 17 -41 18 -56 3 -6 -6 -28 -9 -49 -7 -34 3 -39 6 -44 33 -5 27 -9 30 -45 33 -59 4 -94 58 -37 57 35 0 37 29 2 33 -13 2 -35 13 -49 23 -29 23 -62 24 -102 3 -24 -12 -34 -13 -45 -3 -23 19 -16 37 26 64 47 29 58 49 40 70 -19 23 -40 18 -105 -25 -33 -22 -67 -40 -75 -39 -8 0 -42 17 -75 38 -46 28 -60 42 -59 60 0 13 -9 29 -23 38 -17 11 -23 25 -23 49 0 43 17 44 56 3 16 -17 44 -38 62 -45 29 -13 37 -12 85 7 57 24 97 55 97 75 0 7 -14 48 -31 91 -17 43 -44 113 -59 155 -16 43 -44 107 -63 143 l-35 65 629 0 629 0 -1 -642z m1 -1075 c-1 -353 2 -337 -40 -207 -6 17 -10 42 -10 57 0 15 -9 32 -22 41 -11 8 -107 36 -212 61 -105 25 -198 50 -206 55 -25 16 -22 18 215 153 84 48 88 50 200 122 39 24 71 45 73 45 1 0 2 -147 2 -327z m-3241 -685 c85 -27 105 -37 113 -57 7 -18 12 -21 20 -13 15 15 58 15 93 2 22 -8 26 -15 20 -33 -15 -52 -15 -52 75 -57 l85 -5 0 -30 0 -30 -65 0 -65 0 -5 -35 -5 -35 -187 -2 c-109 -1 -195 -6 -207 -12 -41 -22 -120 28 -156 99 -32 64 -79 199 -71 207 3 4 56 10 117 14 62 5 114 11 117 14 8 8 10 7 121 -27z"/>
 <path d="M1060 1612 c-41 -20 -50 -57 -25 -96 13 -19 14 -29 6 -45 -14 -25 -14 -96 -1 -121 17 -32 51 -45 130 -50 l75 -5 3 -35 c4 -44 25 -61 66 -53 41 8 56 21 56 48 0 31 78 59 138 49 31 -5 48 -2 67 10 24 16 25 20 25 121 0 85 -3 105 -14 105 -8 0 -18 -4 -21 -10 -11 -17 -19 -11 -42 29 -20 36 -25 38 -65 38 -24 -1 -46 -6 -50 -12 -4 -5 -8 -38 -8 -72 0 -54 -11 -85 -26 -70 -2 2 -7 34 -11 70 -7 83 -14 95 -45 79 -24 -13 -38 -10 -123 22 -53 20 -93 20 -135 -2z"/>
 </g>
<g id="layer113" fill="#11a4e4" stroke="none">
 <path d="M0 1515 l0 -1515 2250 0 2250 0 0 1515 0 1515 -2250 0 -2250 0 0 -1515z m1846 1246 c38 -28 176 -137 432 -337 67 -54 121 -102 119 -108 -4 -13 -71 -52 -199 -118 -108 -55 -116 -67 -69 -112 24 -23 36 -27 72 -24 39 3 44 6 44 27 0 19 -7 27 -32 33 -44 12 -42 28 5 29 114 4 106 2 112 34 5 29 6 30 73 33 61 3 67 1 67 -17 0 -27 26 -51 56 -51 21 0 25 -4 22 -22 -2 -18 -10 -24 -38 -26 -57 -4 -80 -12 -80 -26 0 -27 79 -36 138 -15 26 9 42 7 88 -11 45 -16 71 -35 118 -87 99 -108 101 -111 86 -139 -18 -32 -1 -49 48 -49 30 0 37 -4 37 -20 0 -15 -33 -38 -134 -96 l-135 -76 -45 20 c-52 23 -164 20 -201 -6 -20 -14 -23 -14 -41 4 -22 22 -54 24 -89 6 -21 -11 -31 -11 -58 0 -36 15 -62 5 -62 -23 0 -7 -13 -20 -30 -29 -36 -18 -49 -58 -27 -83 8 -9 17 -26 19 -37 4 -26 56 -51 77 -38 9 6 16 20 15 31 0 12 3 19 8 16 4 -3 8 -18 8 -33 0 -47 59 -84 90 -56 15 14 21 14 39 3 12 -7 24 -23 27 -35 6 -23 29 -37 45 -27 5 3 25 0 44 -6 27 -9 41 -24 68 -73 23 -43 40 -62 53 -62 16 0 19 6 16 37 -4 48 9 54 54 23 54 -36 90 -34 108 8 l14 34 146 7 146 7 104 -46 c57 -25 113 -45 125 -45 12 0 24 -7 28 -17 9 -22 -36 -360 -53 -401 -7 -19 -16 -87 -20 -153 l-6 -119 63 -98 c34 -53 107 -161 160 -239 l98 -143 -712 0 c-396 0 -717 4 -722 9 -6 5 -27 14 -48 21 -20 6 -35 15 -32 20 7 11 -161 72 -200 72 -19 0 -63 -3 -97 -6 -60 -6 -62 -6 -40 10 40 30 26 56 -59 109 -48 30 -117 88 -141 118 -15 19 -40 38 -55 41 -15 4 -53 23 -85 42 -31 18 -61 34 -67 34 -5 0 -43 16 -84 35 -41 19 -77 35 -81 35 -4 0 -28 12 -53 27 -44 25 -45 27 -26 42 11 9 24 28 31 44 8 19 19 27 36 27 13 0 37 7 52 15 16 8 36 15 45 15 9 0 22 13 29 30 8 18 23 33 44 40 63 20 196 132 196 164 0 12 -10 16 -42 16 -80 0 -119 -11 -128 -36 -6 -14 -31 -32 -68 -49 -39 -17 -64 -36 -71 -52 -10 -21 -17 -24 -40 -20 -33 7 -71 -16 -71 -42 0 -30 -31 -49 -78 -48 -38 2 -47 -3 -70 -31 -21 -25 -35 -32 -62 -32 -41 0 -95 32 -95 57 0 11 -8 18 -20 18 -11 0 -20 7 -20 15 1 32 18 244 35 434 19 208 17 236 -20 256 -30 16 -249 25 -283 11 -34 -13 -47 -45 -35 -91 4 -19 13 -73 19 -120 5 -47 16 -123 23 -170 7 -47 11 -87 9 -89 -2 -3 -11 6 -21 19 -9 14 -33 47 -52 74 -19 27 -47 58 -62 69 l-27 20 -41 -26 c-22 -15 -58 -39 -80 -53 -39 -26 -59 -62 -46 -83 3 -5 65 -37 136 -72 72 -34 128 -64 126 -66 -4 -4 -107 33 -268 95 -79 30 -82 35 -102 189 l-13 98 -5 -60 -4 -60 -3 75 c-2 51 -5 67 -10 50 -6 -20 -9 -14 -15 32 -4 32 -4 63 1 70 5 8 10 -3 14 -32 3 -25 7 41 7 147 2 184 1 192 -18 198 -20 6 -20 15 -20 566 l0 559 898 0 899 0 39 -29z m2643 -1003 l-1 -1033 -23 68 c-12 38 -25 87 -28 110 -3 25 -14 49 -26 59 -12 9 -72 28 -134 43 -270 63 -323 78 -341 95 -16 16 -22 55 -42 252 -35 356 -42 410 -57 426 -15 14 -211 133 -377 229 -52 30 -102 60 -110 67 -8 8 -31 21 -50 31 -19 9 -63 33 -97 54 -73 42 -70 37 -133 266 -23 83 -55 190 -71 239 -16 49 -29 98 -29 108 0 17 31 18 760 18 l760 0 -1 -1032z m-3240 -1370 c85 -27 105 -37 113 -57 7 -18 12 -21 20 -13 15 15 58 15 93 2 22 -8 26 -15 20 -33 -15 -52 -15 -52 75 -57 l85 -5 0 -30 0 -30 -65 0 -65 0 -5 -35 -5 -35 -187 -2 c-109 -1 -195 -6 -207 -12 -41 -22 -120 28 -156 99 -32 64 -79 199 -71 207 3 4 56 10 117 14 62 5 114 11 117 14 8 8 10 7 121 -27z"/>
 </g>
<g id="layer114" fill="#2596db" stroke="none">
 <path d="M0 1515 l0 -1515 2250 0 2250 0 0 1515 0 1515 -2250 0 -2250 0 0 -1515z m1837 1253 c30 -22 200 -154 448 -349 140 -111 269 -199 305 -209 18 -4 29 -18 38 -46 7 -21 27 -52 44 -68 18 -16 43 -46 57 -65 13 -20 53 -69 89 -109 61 -68 64 -73 48 -90 -20 -23 -20 -36 -1 -52 13 -10 21 -10 43 -1 24 12 29 10 47 -13 11 -15 41 -51 67 -81 53 -61 63 -92 26 -81 -118 34 -191 5 -172 -70 5 -18 2 -24 -11 -24 -13 0 -16 6 -11 25 10 39 -20 95 -50 95 -25 0 -76 -20 -105 -41 -13 -10 -26 -7 -63 11 -40 19 -59 22 -116 18 -37 -3 -77 -12 -90 -21 -20 -14 -23 -14 -41 4 -22 22 -54 24 -89 6 -21 -11 -31 -11 -58 0 -36 15 -62 5 -62 -23 0 -7 -13 -20 -30 -29 -36 -18 -49 -58 -27 -83 8 -9 17 -26 19 -37 4 -26 56 -51 77 -38 9 6 16 20 15 31 0 12 3 19 8 16 4 -3 8 -18 8 -33 0 -47 59 -84 90 -56 15 14 21 14 39 3 12 -7 24 -23 27 -35 4 -13 9 -23 13 -24 3 -1 22 -2 41 -4 61 -5 85 -20 99 -62 18 -56 45 -88 66 -80 12 5 15 14 11 37 -3 16 -9 44 -12 60 -8 41 12 39 37 -4 37 -64 114 -75 133 -19 6 17 14 35 18 39 4 4 74 8 155 10 145 2 149 2 210 -27 34 -16 65 -29 68 -29 4 0 18 -9 32 -20 14 -11 39 -20 54 -20 27 0 29 -3 29 -37 -1 -58 -46 -379 -56 -394 -9 -15 -11 -37 -16 -184 l-3 -90 143 -214 c79 -118 149 -220 156 -227 7 -7 24 -14 37 -17 13 -2 -308 -5 -713 -6 -419 0 -739 3 -742 8 -3 5 -21 12 -41 15 -19 4 -38 13 -42 20 -5 7 -44 27 -88 46 -77 31 -84 32 -175 27 -89 -6 -94 -5 -72 10 40 28 26 56 -59 108 -36 22 -126 95 -153 124 -17 17 -35 31 -41 31 -16 0 -103 47 -122 65 -8 8 -23 15 -33 15 -10 0 -50 16 -89 35 -39 19 -77 35 -84 35 -8 0 -20 6 -26 14 -7 8 -23 17 -36 20 -30 8 -32 22 -5 36 11 6 20 21 20 34 0 28 24 50 46 42 8 -3 28 1 44 9 16 8 37 15 48 15 11 0 24 13 34 33 10 22 27 36 53 46 21 7 57 27 81 45 40 28 44 34 39 65 -6 46 -23 60 -63 54 -23 -4 -36 -13 -43 -29 -6 -17 -28 -33 -68 -50 -45 -19 -61 -32 -66 -51 -5 -23 -10 -25 -41 -20 -39 7 -74 -18 -74 -51 0 -11 -8 -27 -19 -36 -15 -13 -23 -15 -42 -6 -33 15 -76 -2 -89 -35 -8 -21 -16 -25 -51 -25 -48 0 -113 35 -105 56 7 18 -12 28 -28 15 -16 -13 -26 -4 -26 24 0 16 -12 26 -50 42 -28 12 -50 26 -50 31 0 12 34 22 78 22 40 0 43 8 45 107 2 74 1 78 -21 81 -17 3 -38 -13 -87 -64 -48 -50 -68 -64 -77 -56 -7 5 -21 11 -31 13 -9 2 -48 46 -85 98 -37 52 -79 103 -94 114 l-27 20 -41 -26 c-22 -15 -58 -39 -80 -53 -44 -29 -61 -68 -39 -88 8 -7 79 -43 159 -81 80 -37 150 -72 155 -78 7 -7 4 -8 -10 -2 -11 4 -40 13 -65 20 -62 19 -133 45 -145 54 -5 5 -19 11 -30 14 -11 3 -45 15 -75 26 -68 26 -93 27 -88 4 4 -21 46 -43 138 -73 100 -33 243 -92 261 -107 10 -8 15 -22 12 -34 -3 -10 0 -19 6 -19 6 0 11 7 11 16 0 22 54 15 134 -17 l60 -24 28 -85 c31 -97 32 -100 17 -100 -6 0 -27 -14 -46 -30 -25 -22 -44 -30 -73 -30 -28 0 -43 -6 -53 -21 -12 -17 -29 -21 -106 -26 l-91 -6 -41 32 c-47 38 -85 37 -95 -4 -3 -14 -9 -25 -13 -25 -3 0 -42 36 -86 81 -44 44 -95 89 -112 100 l-33 21 1 331 c0 209 4 325 10 312 6 -13 7 -1 3 37 -7 70 8 104 17 38 3 -25 7 41 7 147 2 184 1 192 -18 198 -20 6 -20 15 -20 566 l0 559 898 0 898 0 31 -22z m2652 -1010 l-1 -1033 -23 68 c-12 38 -25 87 -28 110 -3 25 -14 49 -26 59 -12 9 -72 28 -134 43 -270 63 -323 78 -341 95 -16 16 -22 55 -42 252 -33 341 -42 409 -54 423 -6 7 -81 54 -168 105 -86 51 -194 116 -240 144 -86 52 -230 137 -269 157 -27 14 -39 46 -93 244 -23 83 -55 190 -71 239 -16 49 -29 98 -29 108 0 17 31 18 760 18 l760 0 -1 -1032z m-3289 -1353 c23 -8 51 -15 62 -15 34 0 89 -32 99 -58 9 -23 10 -24 28 -8 14 13 28 16 55 11 48 -10 62 -28 47 -62 -7 -14 -8 -30 -4 -34 4 -4 44 -9 88 -11 l80 -3 0 -30 0 -30 -65 0 -65 0 -5 -35 -5 -35 -187 -2 c-109 -1 -195 -6 -207 -12 -29 -16 -43 -14 -90 17 -32 20 -49 41 -68 82 -36 82 -76 200 -69 207 3 4 56 10 117 14 62 5 114 11 117 14 9 8 27 6 72 -10z m-694 -143 c43 -32 85 -66 93 -75 7 -9 27 -17 44 -17 29 0 97 -34 97 -49 0 -7 76 -43 147 -71 18 -7 30 -16 28 -20 -3 -5 5 -11 17 -13 13 -2 -160 -5 -384 -6 -277 -1 -408 2 -408 9 0 22 108 112 193 161 94 55 110 81 61 99 -22 9 -24 13 -14 25 21 25 43 17 126 -43z"/>
 <path d="M492 1450 c-34 -15 -41 -46 -25 -114 13 -58 21 -108 44 -266 13 -100 17 -110 39 -110 24 0 31 21 19 64 -17 61 -15 157 3 199 14 30 29 43 74 64 46 21 58 23 65 12 49 -80 102 -92 77 -17 -7 20 -6 33 6 50 25 35 21 85 -8 103 -29 19 -258 31 -294 15z"/>
 </g>
<g id="layer115" fill="#2fabdf" stroke="none">
 <path d="M0 1515 l0 -1515 2250 0 2250 0 0 1515 0 1515 -2250 0 -2250 0 0 -1515z m1851 1257 c15 -9 44 -29 67 -44 22 -15 42 -31 43 -36 2 -4 45 -38 94 -75 50 -37 104 -80 122 -97 37 -34 69 -39 78 -10 9 29 -10 57 -44 63 -19 4 -34 16 -43 34 -7 15 -24 33 -38 40 -14 6 -32 24 -40 39 -11 19 -30 31 -63 41 -41 12 -48 17 -45 36 l3 22 1253 3 1252 2 0 -1390 0 -1390 -116 0 c-78 0 -126 5 -147 14 -18 8 -45 19 -62 24 -22 8 -25 11 -10 11 11 1 -18 15 -64 31 -46 16 -86 32 -89 34 -8 8 49 117 64 123 8 3 25 -2 39 -11 32 -21 75 -21 75 -1 0 19 -47 65 -66 65 -7 0 -21 14 -31 30 -9 17 -26 33 -38 36 -11 4 -33 17 -48 30 -16 13 -37 24 -47 24 -18 0 -169 87 -203 118 -10 8 -27 47 -39 86 -20 70 -50 116 -74 116 -38 0 -16 33 101 150 116 116 132 129 172 135 53 8 64 28 31 58 -21 20 -25 36 -37 167 -36 396 -49 502 -67 521 -16 17 -211 137 -504 309 -69 40 -140 82 -158 92 -18 11 -36 27 -41 36 -5 10 -32 100 -61 202 -29 102 -57 191 -62 198 -17 20 -51 14 -74 -15 l-21 -27 -84 22 c-46 12 -103 22 -126 22 -38 0 -46 -5 -101 -65 -62 -67 -96 -86 -183 -99 -39 -6 -51 -3 -83 19 -41 28 -76 33 -76 10 0 -8 8 -22 19 -31 10 -9 43 -40 74 -69 61 -59 198 -154 237 -165 18 -4 29 -18 38 -46 7 -21 27 -52 45 -69 18 -16 41 -43 50 -58 10 -15 73 -90 140 -166 129 -147 220 -256 225 -272 5 -12 -35 -12 -43 1 -3 6 -37 10 -74 10 -79 0 -95 -12 -94 -66 1 -22 -4 -34 -12 -34 -10 0 -13 12 -12 39 0 21 -5 46 -12 55 -22 26 -82 20 -132 -13 -43 -29 -67 -29 -84 -1 -8 13 -55 13 -55 0 0 -5 11 -17 24 -25 14 -9 28 -32 34 -55 l10 -39 -52 -17 c-56 -18 -86 -39 -86 -61 0 -8 -5 -11 -11 -7 -6 3 -9 17 -6 30 7 41 -9 50 -37 20 -31 -34 -46 -27 -46 22 0 45 -13 67 -34 59 -12 -5 -16 -21 -16 -70 0 -59 2 -64 29 -80 16 -9 31 -28 35 -41 5 -22 10 -23 68 -22 60 1 63 2 60 24 -1 16 2 22 10 19 7 -2 12 -11 10 -18 -5 -21 27 -39 59 -32 24 5 31 1 49 -29 27 -46 82 -77 104 -59 9 8 16 26 16 42 0 36 24 43 118 37 43 -3 76 0 93 8 23 11 38 9 133 -26 59 -21 122 -48 140 -59 18 -12 45 -21 60 -21 24 0 26 -3 26 -47 0 -44 -27 -256 -65 -518 -16 -113 -13 -136 25 -185 42 -55 149 -219 170 -261 11 -21 28 -44 39 -51 11 -8 25 -26 32 -41 9 -20 20 -27 43 -28 17 -1 23 -3 14 -6 -10 -2 -18 -12 -18 -20 0 -14 12 -15 88 -9 60 4 82 3 70 -4 -11 -7 -616 -9 -1823 -8 l-1807 3 49 52 c27 28 85 73 128 98 106 62 117 73 104 96 -5 11 -20 19 -34 19 -19 0 -59 34 -161 140 -75 77 -152 149 -170 161 l-34 21 0 1094 0 1094 908 0 c846 0 909 -1 933 -18z"/>
 </g>
<g id="layer116" fill="#4ba9df" stroke="none">
 <path d="M0 1515 l0 -1515 2250 0 2250 0 0 1515 0 1515 -2250 0 -2250 0 0 -1515z m4490 -115 l0 -1390 -313 2 c-281 2 -294 3 -132 8 99 3 153 7 120 9 -55 3 -57 4 -25 11 24 5 28 8 12 9 -13 0 -20 6 -17 11 3 6 2 10 -4 10 -13 0 -111 37 -130 49 -11 7 -10 14 7 38 11 16 24 41 27 56 11 44 30 52 64 28 35 -25 81 -28 81 -6 0 19 -47 65 -66 65 -7 0 -21 14 -31 30 -9 17 -26 33 -38 36 -11 4 -33 17 -48 30 -17 15 -42 24 -61 24 -23 0 -58 17 -117 56 -46 31 -93 64 -104 73 -11 10 -56 39 -100 66 -44 27 -81 49 -83 50 -1 1 2 15 8 30 16 42 -4 55 -94 66 -42 4 -80 10 -85 13 -23 15 -42 -24 -57 -113 -20 -125 -17 -165 15 -169 18 -3 39 12 92 64 l67 67 97 -62 c54 -34 108 -66 121 -71 12 -5 52 -27 88 -49 36 -22 74 -42 85 -46 34 -10 52 -53 61 -143 5 -48 12 -96 15 -107 5 -16 -3 -27 -34 -50 -32 -25 -36 -31 -23 -37 11 -4 3 -8 -23 -9 -22 -2 1 -6 50 -9 l90 -6 -107 -2 c-59 -1 -110 -6 -113 -12 -4 -7 -631 -10 -1853 -9 -1016 1 -1839 3 -1829 6 14 4 16 8 6 19 -9 11 -6 16 16 24 42 16 115 80 115 101 0 26 -39 25 -90 -1 -63 -32 -47 -2 30 59 24 19 24 20 5 26 -11 4 -27 10 -36 15 -9 5 -41 8 -72 8 l-56 -1 -4 -56 c-2 -31 -4 537 -5 1262 l-2 1317 2240 0 2240 0 0 -1390z"/>
 <path d="M3390 2010 c-14 -4 -52 -25 -85 -47 -33 -22 -76 -48 -95 -58 -19 -10 -63 -40 -98 -66 -35 -27 -67 -49 -72 -49 -15 0 -40 -31 -40 -50 0 -11 23 -47 51 -80 28 -34 47 -66 43 -70 -5 -5 -25 -10 -44 -12 -32 -3 -35 -6 -32 -30 3 -27 2 -27 -27 -17 -36 13 -40 25 -11 34 25 8 26 21 1 35 -55 29 -96 -2 -88 -67 l5 -43 -39 0 c-35 0 -39 -3 -47 -32 -10 -40 -32 -49 -32 -14 0 15 13 38 30 56 32 33 36 50 20 81 -8 14 -21 19 -53 19 -35 0 -49 -6 -72 -30 -36 -37 -50 -38 -67 -2 -9 18 -22 28 -42 30 -38 5 -31 -18 12 -38 22 -10 32 -22 32 -38 0 -12 7 -34 16 -47 16 -25 16 -64 -1 -68 -5 -1 -11 11 -13 26 -3 27 -5 29 -40 22 -54 -10 -85 -27 -99 -55 -10 -21 -13 -22 -19 -7 -3 9 -4 23 -1 30 3 8 1 20 -3 27 -6 10 -14 7 -34 -14 -31 -34 -46 -27 -46 22 0 45 -13 67 -34 59 -12 -5 -16 -21 -16 -70 0 -59 2 -64 29 -80 16 -9 31 -28 35 -41 5 -22 10 -23 68 -22 58 1 63 3 61 22 -2 17 4 23 27 26 33 5 40 -6 14 -20 -22 -12 -8 -35 16 -27 26 8 57 -10 74 -43 8 -16 30 -37 49 -47 30 -16 38 -17 51 -6 9 8 16 26 16 41 0 40 42 66 80 50 18 -8 48 -9 80 -5 52 7 70 23 70 64 0 12 7 21 15 21 8 0 15 -7 15 -16 0 -9 16 -32 35 -51 34 -34 35 -34 112 -32 l78 2 6 -37 c7 -43 21 -56 62 -56 20 0 30 -7 37 -26 7 -16 26 -32 57 -45 27 -11 72 -31 101 -45 157 -74 185 -80 284 -59 40 8 86 15 101 15 38 0 45 25 15 53 -21 20 -25 36 -37 167 -31 338 -50 502 -62 516 -6 8 -66 46 -133 86 -66 39 -148 88 -181 109 -75 48 -104 58 -135 49z"/>
 </g>
<g id="layer117" fill="#3dbee2" stroke="none">
 <path d="M0 1515 l0 -1515 2250 0 2250 0 0 1515 0 1515 -2250 0 -2250 0 0 -1515z m4490 -115 l0 -1390 -309 0 c-214 0 -312 3 -317 11 -4 7 -19 8 -43 3 -38 -8 -3749 -15 -3718 -7 14 4 15 8 7 18 -9 11 -4 17 23 30 43 20 101 80 93 94 -10 16 -42 14 -77 -5 -17 -8 -33 -13 -36 -11 -8 9 19 43 53 65 36 23 37 42 4 42 -10 0 -21 4 -25 9 -3 6 -32 9 -65 9 l-59 -1 -4 -56 c-2 -31 -4 537 -5 1262 l-2 1317 2240 0 2240 0 0 -1390z"/>
 <path d="M3390 2010 c-14 -4 -52 -25 -85 -47 -33 -22 -76 -48 -95 -58 -19 -10 -63 -40 -98 -66 -35 -27 -67 -49 -72 -49 -15 0 -40 -31 -40 -50 0 -11 23 -47 51 -80 55 -66 55 -84 1 -85 -22 0 -28 -5 -30 -27 -3 -25 -5 -26 -33 -16 -34 12 -37 24 -9 33 25 8 26 21 1 35 -55 29 -96 -2 -88 -67 5 -43 4 -43 -28 -43 -39 0 -59 -21 -50 -50 5 -17 12 -20 31 -16 21 6 26 2 36 -24 7 -22 18 -33 39 -37 16 -3 32 -10 35 -14 11 -18 56 -10 61 11 6 24 33 27 33 4 0 -9 16 -32 35 -51 l35 -35 82 3 83 4 3 -38 c3 -33 6 -38 25 -35 13 2 23 11 25 23 7 41 11 48 26 36 8 -7 13 -30 13 -60 -1 -60 10 -75 76 -100 29 -11 72 -30 97 -42 129 -63 173 -74 251 -59 98 18 109 26 109 79 0 87 -58 649 -69 669 -6 12 -66 53 -134 93 -67 39 -149 89 -182 110 -75 48 -104 58 -135 49z"/>
 </g>
<g id="layer118" fill="#49caef" stroke="none">
 <path d="M0 1515 l0 -1515 2250 0 2250 0 0 1515 0 1515 -2250 0 -2250 0 0 -1515z m4490 -115 l0 -1390 -2212 1 c-1217 1 -2199 4 -2183 8 28 6 29 7 10 18 -18 10 -17 12 15 26 45 18 100 65 100 83 0 28 -30 26 -85 -5 -66 -37 -72 -25 -25 46 29 43 38 72 23 74 -5 1 -27 3 -50 3 l-43 2 -2 -70 -2 -71 -6 75 -6 75 -5 -60 c-3 -33 -6 533 -7 1258 l-2 1317 2240 0 2240 0 0 -1390z"/>
 <path d="M3280 1935 c-174 -104 -173 -103 -169 -238 l4 -110 -35 -20 c-43 -24 -49 -33 -51 -77 -1 -31 -2 -32 -8 -10 -10 35 -39 38 -47 6 -3 -14 -3 -37 0 -51 4 -14 1 -34 -6 -45 -9 -15 -10 -22 -1 -31 19 -19 44 -2 41 28 -2 19 2 28 14 31 13 2 24 -11 42 -52 37 -83 69 -95 200 -74 14 2 21 -5 28 -29 10 -39 35 -43 44 -7 4 16 12 24 23 22 12 -2 17 -18 21 -60 4 -41 11 -61 25 -72 30 -23 289 -136 311 -136 10 0 26 5 34 10 13 8 12 13 -4 40 -27 46 -6 61 29 22 40 -45 79 -58 110 -38 32 21 32 18 -4 394 -18 188 -34 309 -42 318 -19 24 -65 44 -98 44 -16 0 -33 5 -36 10 -13 21 -25 9 -25 -25 0 -29 -4 -36 -25 -41 -34 -8 -55 1 -57 26 -4 52 -3 55 27 60 54 9 37 36 -74 110 -58 39 -114 70 -125 70 -12 0 -77 -34 -146 -75z"/>
 </g>
<g id="layer119" fill="#95b4cd" stroke="none">
 <path d="M0 1515 l0 -1515 2250 0 2250 0 0 1515 0 1515 -2250 0 -2250 0 0 -1515z m4490 -115 l0 -1390 -2240 0 -2240 0 0 1390 0 1390 2240 0 2240 0 0 -1390z"/>
 <path d="M3695 1658 l-98 -101 -19 26 c-17 23 -27 27 -69 27 -28 0 -58 -4 -68 -9 -12 -7 -32 -5 -61 5 -32 11 -50 12 -72 5 -19 -7 -38 -7 -54 -1 -37 15 -90 12 -104 -5 -18 -21 -8 -36 30 -49 28 -9 34 -16 32 -34 -4 -26 23 -62 45 -62 7 0 18 -11 23 -25 9 -24 19 -29 47 -26 7 1 17 -15 23 -36 7 -26 23 -48 53 -70 61 -45 445 -235 470 -231 13 2 23 14 28 32 10 36 -45 605 -61 635 -6 12 -19 21 -29 21 -10 0 -62 -46 -116 -102z"/>
 </g>
<g id="layer120" fill="#70d6f7" stroke="none">
 <path d="M0 2910 l0 -120 2250 0 2250 0 0 120 0 120 -2250 0 -2250 0 0 -120z"/>
 <path d="M3695 1658 l-98 -101 -19 26 c-17 23 -27 27 -69 27 -28 0 -58 -4 -68 -9 -12 -7 -32 -5 -61 5 -32 11 -50 12 -72 5 -19 -7 -38 -7 -54 -1 -37 15 -90 12 -104 -5 -18 -21 -8 -36 30 -49 28 -9 34 -16 32 -34 -4 -26 23 -62 45 -62 7 0 18 -11 23 -25 9 -24 19 -29 47 -26 7 1 17 -15 23 -36 7 -26 23 -48 53 -70 61 -45 445 -235 470 -231 13 2 23 14 28 32 10 36 -45 605 -61 635 -6 12 -19 21 -29 21 -10 0 -62 -46 -116 -102z"/>
 </g>
<g id="layer121" fill="#d1e0eb" stroke="none">
 <path d="M0 2910 l0 -120 2250 0 2250 0 0 120 0 120 -2250 0 -2250 0 0 -120z"/>
 </g>
<g id="layer122" fill="#fefefe" stroke="none">
 <path d="M0 2910 l0 -120 2250 0 2250 0 0 120 0 120 -2250 0 -2250 0 0 -120z"/>
 </g>

</svg>